<?xml version="1.0" encoding="UTF-8"?>
<!-- Generator: Adobe Illustrator 19.1.0, SVG Export Plug-In . SVG Version: 6.00 Build 0)  -->
<svg xmlns="http://www.w3.org/2000/svg" xmlns:xlink="http://www.w3.org/1999/xlink" xmlns:dc="http://purl.org/dc/elements/1.1/" xmlns:cc="http://creativecommons.org/ns#" xmlns:rdf="http://www.w3.org/1999/02/22-rdf-syntax-ns#" version="1.1" id="DESIGNS" x="0px" y="0px" width="32px" height="32px" viewBox="0 0 32 32" style="enable-background:new 0 0 32 32;" xml:space="preserve">
<desc property="dc:description">An icon for "search" from the Feather series on to [icon]. Downloaded from http://www.toicon.com/icons/feather_search by 12.10.115.129 on 2018-10-01. Licensed CC-BY, see http://toicon.com/license/ for details.</desc>
<path class="feather_een" d="M11,2c-4.963,0-9,4.037-9,9s4.037,9,9,9c4.963,0,9-4.037,9-9S15.963,2,11,2z M11,19  c-4.418,0-8-3.582-8-8s3.582-8,8-8s8,3.582,8,8S15.418,19,11,19z M21.293,18.707L21,19l-1.294-1.294  c1.735-2.25,2.632-5.179,2.176-8.332c-0.675-4.667-4.391-8.473-9.046-9.225C5.328-1.065-1.065,5.328,0.149,12.836  c0.752,4.655,4.558,8.371,9.225,9.046c3.153,0.456,6.083-0.441,8.332-2.176L19,21l-0.293,0.293c-0.39,0.391-0.39,1.024,0,1.414  L26,30c1.105,1.105,2.895,1.105,4,0l0,0c1.105-1.105,1.105-2.895,0-4l-7.293-7.293C22.317,18.317,21.683,18.317,21.293,18.707z   M1,11C1,5.486,5.486,1,11,1c5.514,0,10,4.486,10,10s-4.486,10-10,10C5.486,21,1,16.514,1,11z M18.471,19.057  c0.203-0.188,0.398-0.383,0.586-0.586l1.236,1.236l-0.586,0.586L18.471,19.057z M19.395,21.98l2.598-2.573l7.3,7.3  c0.714,0.714,0.714,1.872,0,2.586l0,0c-0.714,0.714-1.872,0.714-2.586,0L19.395,21.98z" style="fill: #0B1719;"/>
<metadata><work rdf:about=""><format>image/svg+xml</format><type rdf:resource="http://purl.org/dc/dcmitype/StillImage"/><license rdf:resource="http://creativecommons.org/licenses/by/4.0/"/><attributionname>Shannon E Thomas</attributionname><attributionurl>http://www.toicon.com/icons/feather_search</attributionurl></work></metadata></svg>
