<?xml version="1.0" encoding="UTF-8"?>
<!-- Generator: Adobe Illustrator 19.1.0, SVG Export Plug-In . SVG Version: 6.00 Build 0)  -->
<svg xmlns="http://www.w3.org/2000/svg" xmlns:xlink="http://www.w3.org/1999/xlink" xmlns:dc="http://purl.org/dc/elements/1.1/" xmlns:cc="http://creativecommons.org/ns#" xmlns:rdf="http://www.w3.org/1999/02/22-rdf-syntax-ns#" version="1.1" id="DESIGNS" x="0px" y="0px" width="32px" height="32px" viewBox="0 0 32 32" style="enable-background:new 0 0 32 32;" xml:space="preserve">
<desc property="dc:description">An icon for "say" from the Feather series on to [icon]. Downloaded from http://www.toicon.com/icons/feather_say by 12.10.115.129 on 2018-10-01. Licensed CC-BY, see http://toicon.com/license/ for details.</desc>
<path class="feather_een" d="M20,16.5c0,0.276-0.224,0.5-0.5,0.5h-7c-0.276,0-0.5-0.224-0.5-0.5c0-0.276,0.224-0.5,0.5-0.5h7  C19.776,16,20,16.224,20,16.5z M19.5,18h-7c-0.276,0-0.5,0.224-0.5,0.5c0,0.276,0.224,0.5,0.5,0.5h7c0.276,0,0.5-0.224,0.5-0.5  C20,18.224,19.776,18,19.5,18z M29.887,17.803c-0.79,6.326-5.949,11.401-12.285,12.108c-3.47,0.387-6.716-0.502-9.342-2.248  l-4.632,2.059c-0.378,0.168-0.821,0.086-1.113-0.207l-0.029-0.029c-0.293-0.293-0.375-0.735-0.207-1.113l2.059-4.632  c-1.747-2.626-2.635-5.872-2.248-9.342C2.796,8.062,7.871,2.903,14.197,2.113C23.342,0.971,31.029,8.658,29.887,17.803z   M28.79,14.123C27.997,8.524,23.476,4.003,17.877,3.21C9.173,1.978,1.8,9.483,3.263,18.221c0.307,1.833,1.067,3.563,2.096,5.111  l0.203,0.305l-2.241,5.042l5.042-2.241l0.305,0.203c1.548,1.029,3.278,1.789,5.111,2.096C22.517,30.2,30.023,22.827,28.79,14.123z   M19.5,12h-7c-0.276,0-0.5,0.224-0.5,0.5c0,0.276,0.224,0.5,0.5,0.5h7c0.276,0,0.5-0.224,0.5-0.5C20,12.224,19.776,12,19.5,12z   M19.5,14h-7c-0.276,0-0.5,0.224-0.5,0.5c0,0.276,0.224,0.5,0.5,0.5h7c0.276,0,0.5-0.224,0.5-0.5C20,14.224,19.776,14,19.5,14z" style="fill: #0B1719;"/>
<metadata><work rdf:about=""><format>image/svg+xml</format><type rdf:resource="http://purl.org/dc/dcmitype/StillImage"/><license rdf:resource="http://creativecommons.org/licenses/by/4.0/"/><attributionname>Shannon E Thomas</attributionname><attributionurl>http://www.toicon.com/icons/feather_say</attributionurl></work></metadata></svg>
