<?xml version="1.0" encoding="UTF-8"?>
<!-- Generator: Adobe Illustrator 19.1.0, SVG Export Plug-In . SVG Version: 6.00 Build 0)  -->
<svg xmlns="http://www.w3.org/2000/svg" xmlns:xlink="http://www.w3.org/1999/xlink" xmlns:dc="http://purl.org/dc/elements/1.1/" xmlns:cc="http://creativecommons.org/ns#" xmlns:rdf="http://www.w3.org/1999/02/22-rdf-syntax-ns#" version="1.1" id="DESIGNS" x="0px" y="0px" width="32px" height="32px" viewBox="0 0 32 32" style="enable-background:new 0 0 32 32;" xml:space="preserve">
<desc property="dc:description">An icon for "battle" from the Feather series on to [icon]. Downloaded from http://www.toicon.com/icons/feather_battle by 12.10.115.129 on 2018-10-01. Licensed CC-BY, see http://toicon.com/license/ for details.</desc>
<path class="feather_een" d="M30.146,26.439l-4.293-4.293l2.232-2.232c0.781-0.781,0.781-2.047,0-2.828l-0.172-0.172  c-0.391-0.391-0.902-0.586-1.414-0.586s-1.024,0.195-1.414,0.586l-2.221,2.221L13.656,3.479C13.12,2.567,12.128,2,11.07,2H3  C2.449,2,2,2.449,2,3v8.07c0,1.058,0.567,2.049,1.479,2.586l15.656,9.209l-2.221,2.221c-0.781,0.781-0.781,2.047,0,2.828  l0.172,0.172c0.391,0.391,0.902,0.586,1.414,0.586s1.024-0.195,1.414-0.586l2.232-2.232l4.293,4.293  c0.292,0.292,0.676,0.438,1.061,0.438s0.768-0.146,1.061-0.438l1.586-1.586C30.731,27.976,30.731,27.024,30.146,26.439z M11.07,3  c0.706,0,1.366,0.378,1.724,0.986L22.13,19.87l-0.777,0.777L3.707,3H11.07z M3.986,12.794C3.378,12.437,3,11.776,3,11.07V3.707  l17.646,17.646l-0.781,0.781L3.986,12.794z M19.207,27.379c-0.189,0.189-0.44,0.293-0.707,0.293s-0.518-0.104-0.707-0.293  l-0.172-0.172c-0.39-0.39-0.39-1.024,0-1.414l8.172-8.172c0.189-0.189,0.44-0.293,0.707-0.293s0.518,0.104,0.707,0.293l0.172,0.172  c0.39,0.39,0.39,1.024,0,1.414L19.207,27.379z M29.439,27.854l-1.586,1.586c-0.195,0.195-0.512,0.195-0.707,0l-4.293-4.293  l2.293-2.293l4.293,4.293C29.634,27.341,29.634,27.659,29.439,27.854z" style="fill: #0B1719;"/>
<metadata><work rdf:about=""><format>image/svg+xml</format><type rdf:resource="http://purl.org/dc/dcmitype/StillImage"/><license rdf:resource="http://creativecommons.org/licenses/by/4.0/"/><attributionname>Shannon E Thomas</attributionname><attributionurl>http://www.toicon.com/icons/feather_battle</attributionurl></work></metadata></svg>
