<?xml version="1.0" encoding="UTF-8"?>
<!-- Generator: Adobe Illustrator 19.1.0, SVG Export Plug-In . SVG Version: 6.00 Build 0)  -->
<svg xmlns="http://www.w3.org/2000/svg" xmlns:xlink="http://www.w3.org/1999/xlink" xmlns:dc="http://purl.org/dc/elements/1.1/" xmlns:cc="http://creativecommons.org/ns#" xmlns:rdf="http://www.w3.org/1999/02/22-rdf-syntax-ns#" version="1.1" id="DESIGNS" x="0px" y="0px" width="32px" height="32px" viewBox="0 0 32 32" style="enable-background:new 0 0 32 32;" xml:space="preserve">
<desc property="dc:description">An icon for "radiate" from the Feather series on to [icon]. Downloaded from http://www.toicon.com/icons/feather_radiate by 12.10.115.129 on 2018-10-01. Licensed CC-BY, see http://toicon.com/license/ for details.</desc>
<path class="feather_een" d="M16,6C10.477,6,6,10.477,6,16s4.477,10,10,10s10-4.477,10-10S21.523,6,16,6z M16,25  c-4.963,0-9-4.037-9-9c0-4.963,4.037-9,9-9s9,4.037,9,9C25,20.963,20.963,25,16,25z M10.085,2.776  c-0.105-0.255,0.016-0.548,0.271-0.653c0.258-0.105,0.548,0.016,0.653,0.271l1.147,2.772c0.105,0.255-0.016,0.548-0.271,0.653  c-0.062,0.026-0.128,0.038-0.191,0.038c-0.196,0-0.382-0.116-0.462-0.309L10.085,2.776z M21.915,28.724  c0.105,0.255-0.016,0.548-0.271,0.653c-0.062,0.026-0.128,0.038-0.191,0.038c-0.196,0-0.382-0.116-0.462-0.309l-1.147-2.772  c-0.105-0.255,0.016-0.548,0.271-0.653c0.256-0.106,0.548,0.017,0.653,0.271L21.915,28.724z M2.373,10.105  c0.105-0.254,0.398-0.376,0.653-0.271l2.771,1.148c0.255,0.105,0.376,0.398,0.271,0.653c-0.08,0.192-0.266,0.309-0.462,0.309  c-0.063,0-0.129-0.012-0.191-0.038l-2.771-1.148C2.389,10.653,2.268,10.361,2.373,10.105z M29.627,21.395  c-0.08,0.192-0.266,0.309-0.462,0.309c-0.063,0-0.129-0.012-0.191-0.038l-2.771-1.148c-0.255-0.105-0.376-0.398-0.271-0.653  c0.105-0.254,0.398-0.377,0.653-0.271l2.771,1.148C29.611,20.847,29.732,21.139,29.627,21.395z M6.068,19.864  c0.105,0.255-0.016,0.548-0.271,0.653l-2.771,1.148c-0.062,0.026-0.128,0.038-0.191,0.038c-0.196,0-0.382-0.116-0.462-0.309  c-0.105-0.255,0.016-0.548,0.271-0.653l2.771-1.148C5.671,19.487,5.963,19.61,6.068,19.864z M25.932,11.636  c-0.105-0.255,0.016-0.548,0.271-0.653l2.771-1.148c0.257-0.105,0.548,0.016,0.653,0.271c0.105,0.255-0.016,0.548-0.271,0.653  l-2.771,1.148c-0.062,0.026-0.128,0.038-0.191,0.038C26.197,11.945,26.012,11.829,25.932,11.636z M12.156,26.335l-1.147,2.772  c-0.08,0.192-0.266,0.309-0.462,0.309c-0.063,0-0.129-0.012-0.191-0.038c-0.255-0.105-0.376-0.398-0.271-0.653l1.147-2.772  c0.105-0.254,0.399-0.377,0.653-0.271C12.141,25.787,12.262,26.08,12.156,26.335z M19.844,5.165l1.147-2.772  c0.106-0.255,0.397-0.376,0.653-0.271c0.255,0.105,0.376,0.398,0.271,0.653l-1.147,2.772c-0.08,0.192-0.266,0.309-0.462,0.309  c-0.063,0-0.129-0.012-0.191-0.038C19.859,5.713,19.738,5.42,19.844,5.165z" style="fill: yellow;"/>
<metadata><work rdf:about=""><format>image/svg+xml</format><type rdf:resource="http://purl.org/dc/dcmitype/StillImage"/><license rdf:resource="http://creativecommons.org/licenses/by/4.0/"/><attributionname>Shannon E Thomas</attributionname><attributionurl>http://www.toicon.com/icons/feather_radiate</attributionurl></work></metadata></svg>
