<?xml version="1.0" encoding="UTF-8"?>
<!-- Generator: Adobe Illustrator 19.1.0, SVG Export Plug-In . SVG Version: 6.00 Build 0)  -->
<svg xmlns="http://www.w3.org/2000/svg" xmlns:xlink="http://www.w3.org/1999/xlink" xmlns:dc="http://purl.org/dc/elements/1.1/" xmlns:cc="http://creativecommons.org/ns#" xmlns:rdf="http://www.w3.org/1999/02/22-rdf-syntax-ns#" version="1.1" id="DESIGNS" x="0px" y="0px" width="32px" height="32px" viewBox="0 0 32 32" style="enable-background:new 0 0 32 32;" xml:space="preserve">
<desc property="dc:description">An icon for "glow" from the Feather series on to [icon]. Downloaded from http://www.toicon.com/icons/feather_glow by 12.10.115.129 on 2018-10-01. Licensed CC-BY, see http://toicon.com/license/ for details.</desc>
<path class="feather_een" d="M29.596,18.27c-0.212,0-0.429,0.07-0.624,0.23C27.076,20.061,24.649,21,22,21  c-0.476,0-0.958-0.03-1.447-0.093c-4.883-0.624-8.836-4.578-9.461-9.461c-0.41-3.207,0.566-6.182,2.407-8.419  c0.554-0.673,0.033-1.63-0.767-1.63c-0.08,0-0.162,0.01-0.247,0.03C5.651,3.066,0.636,9.376,1.021,16.799  c0.393,7.57,6.61,13.787,14.18,14.18C15.469,30.993,15.735,31,16,31c7.073,0,12.993-4.898,14.573-11.486  C30.738,18.826,30.191,18.27,29.596,18.27z M16,30c-0.248,0-0.497-0.006-0.747-0.019C8.198,29.614,2.385,23.802,2.019,16.747  C1.67,10.004,6.17,3.97,12.719,2.4c0.001,0,0.002-0.001,0.003-0.001c-2.118,2.576-3.049,5.834-2.622,9.175  c0.678,5.305,5.021,9.648,10.326,10.326C20.95,21.966,21.479,22,22,22c2.769,0,5.471-0.969,7.601-2.719  C28.087,25.592,22.494,30,16,30z" style="fill: white;"/>
<metadata><work rdf:about=""><format>image/svg+xml</format><type rdf:resource="http://purl.org/dc/dcmitype/StillImage"/><license rdf:resource="http://creativecommons.org/licenses/by/4.0/"/><attributionname>Shannon E Thomas</attributionname><attributionurl>http://www.toicon.com/icons/feather_glow</attributionurl></work></metadata></svg>
