<?xml version="1.0" encoding="UTF-8"?>
<!-- Generator: Adobe Illustrator 19.1.0, SVG Export Plug-In . SVG Version: 6.00 Build 0)  -->
<svg xmlns="http://www.w3.org/2000/svg" xmlns:xlink="http://www.w3.org/1999/xlink" xmlns:dc="http://purl.org/dc/elements/1.1/" xmlns:cc="http://creativecommons.org/ns#" xmlns:rdf="http://www.w3.org/1999/02/22-rdf-syntax-ns#" version="1.1" id="DESIGNS" x="0px" y="0px" width="32px" height="32px" viewBox="0 0 32 32" style="enable-background:new 0 0 32 32;" xml:space="preserve">
<desc property="dc:description">An icon for "edit" from the Feather series on to [icon]. Downloaded from http://www.toicon.com/icons/feather_edit by 12.10.115.129 on 2018-10-01. Licensed CC-BY, see http://toicon.com/license/ for details.</desc>
<path class="feather_een" d="M19,0h-6c-1.657,0-3,1.343-3,3v20.667c0,0.216,0.07,0.427,0.2,0.6l5,6.667c0.4,0.533,1.2,0.533,1.6,0  l5-6.667c0.13-0.173,0.2-0.384,0.2-0.6V3C22,1.343,20.657,0,19,0z M16,30.333L15,29h2L16,30.333z M17.75,28h-3.5l-3-4h9.5L17.75,28z   M21,23H11V11h10V23z M21,10H11V7h10V10z M21,6H11V3c0-1.103,0.897-2,2-2h6c1.103,0,2,0.897,2,2V6z" style="fill: #0B1719;"/>
<metadata><work rdf:about=""><format>image/svg+xml</format><type rdf:resource="http://purl.org/dc/dcmitype/StillImage"/><license rdf:resource="http://creativecommons.org/licenses/by/4.0/"/><attributionname>Shannon E Thomas</attributionname><attributionurl>http://www.toicon.com/icons/feather_edit</attributionurl></work></metadata></svg>
