<?xml version="1.0" encoding="UTF-8"?>
<!-- Generator: Adobe Illustrator 19.1.0, SVG Export Plug-In . SVG Version: 6.00 Build 0)  -->
<svg xmlns="http://www.w3.org/2000/svg" xmlns:xlink="http://www.w3.org/1999/xlink" xmlns:dc="http://purl.org/dc/elements/1.1/" xmlns:cc="http://creativecommons.org/ns#" xmlns:rdf="http://www.w3.org/1999/02/22-rdf-syntax-ns#" version="1.1" id="DESIGNS" x="0px" y="0px" width="32px" height="32px" viewBox="0 0 32 32" style="enable-background:new 0 0 32 32;" xml:space="preserve">
<desc property="dc:description">An icon for "defend" from the Feather series on to [icon]. Downloaded from http://www.toicon.com/icons/feather_defend by 12.10.115.129 on 2018-10-01. Licensed CC-BY, see http://toicon.com/license/ for details.</desc>
<path class="feather_een" d="M23,4V3.581c0-0.495-0.357-0.914-0.846-0.988C20.765,2.383,17.96,2,16,2s-4.765,0.383-6.154,0.592  C9.357,2.666,9,3.086,9,3.581V4c0,2.471-1.793,4.524-4.149,4.928C4.364,9.011,4,9.417,4,9.911L4,20  c0,5.479,8.201,8.733,11.044,9.697c0.624,0.211,1.289,0.211,1.913,0C19.799,28.733,28,25.479,28,20l0-10.089  c0-0.494-0.364-0.9-0.851-0.983C24.793,8.524,23,6.471,23,4z M27,9.917V15H16.5V3.011c1.79,0.028,3.639,0.196,5.522,0.518  C22.007,3.688,22,3.844,22,4C22,6.968,24.166,9.439,27,9.917z M10,4c0-0.156-0.007-0.312-0.022-0.471  c1.883-0.321,3.732-0.49,5.522-0.518V15H5V9.917C7.834,9.439,10,6.968,10,4z M5,20v-4h10.5v12.793C12.967,27.947,5,24.897,5,20z   M16.5,28.793V16H27v4C27,24.897,19.033,27.947,16.5,28.793z" style="fill: #0B1719;"/>
<metadata><work rdf:about=""><format>image/svg+xml</format><type rdf:resource="http://purl.org/dc/dcmitype/StillImage"/><license rdf:resource="http://creativecommons.org/licenses/by/4.0/"/><attributionname>Shannon E Thomas</attributionname><attributionurl>http://www.toicon.com/icons/feather_defend</attributionurl></work></metadata></svg>
