<?xml version="1.0" encoding="UTF-8"?>
<!-- Generator: Adobe Illustrator 19.2.0, SVG Export Plug-In . SVG Version: 6.00 Build 0)  -->
<svg xmlns="http://www.w3.org/2000/svg" xmlns:xlink="http://www.w3.org/1999/xlink" xmlns:dc="http://purl.org/dc/elements/1.1/" xmlns:cc="http://creativecommons.org/ns#" xmlns:rdf="http://www.w3.org/1999/02/22-rdf-syntax-ns#" version="1.1" id="DESIGNS" x="0px" y="0px" width="32px" height="32px" viewBox="0 0 32 32" style="enable-background:new 0 0 32 32;" xml:space="preserve">
<desc property="dc:description">An icon for "stop" from the Feather series on to [icon]. Downloaded from http://www.toicon.com/icons/feather_stop by 12.10.115.129 on 2018-10-01. Licensed CC-BY, see http://toicon.com/license/ for details.</desc>
<path class="feather_een" d="M10.737,4.293l-6.444,6.444C4.105,10.924,4,11.178,4,11.444v9.113c0,0.265,0.105,0.52,0.293,0.707  l6.444,6.444C10.924,27.895,11.179,28,11.444,28h9.112c0.265,0,0.52-0.105,0.707-0.293l6.444-6.444  C27.895,21.076,28,20.821,28,20.556v-9.113c0-0.265-0.105-0.52-0.293-0.707l-6.444-6.444C21.076,4.105,20.821,4,20.556,4h-9.112  C11.179,4,10.924,4.105,10.737,4.293z M27,20.556L20.556,27h-9.112L5,20.556v-9.113L11.444,5h9.112L27,11.444V20.556z M20.556,2  h-9.113c-0.796,0-1.559,0.316-2.121,0.879L2.879,9.322C2.316,9.885,2,10.648,2,11.444v9.113c0,0.796,0.316,1.559,0.879,2.121  l6.444,6.444C9.885,29.684,10.648,30,11.444,30h9.113c0.796,0,1.559-0.316,2.121-0.879l6.444-6.444  C29.684,22.115,30,21.352,30,20.556v-9.113c0-0.796-0.316-1.559-0.879-2.121l-6.444-6.444C22.115,2.316,21.352,2,20.556,2z   M28.414,21.971l-6.444,6.444C21.595,28.789,21.087,29,20.556,29h-9.113c-0.53,0-1.039-0.211-1.414-0.586l-6.444-6.444  C3.211,21.595,3,21.087,3,20.556v-9.113c0-0.53,0.211-1.039,0.586-1.414l6.444-6.444C10.405,3.211,10.913,3,11.444,3h9.113  c0.53,0,1.039,0.211,1.414,0.586l6.444,6.444C28.789,10.405,29,10.913,29,11.444v9.113C29,21.087,28.789,21.595,28.414,21.971z   M18.586,10.586L16,13.172l-2.586-2.586c-0.391-0.391-1.024-0.391-1.414,0L10.586,12c-0.391,0.391-0.391,1.024,0,1.414L13.172,16  l-2.586,2.586c-0.391,0.391-0.391,1.024,0,1.414L12,21.414c0.391,0.391,1.024,0.391,1.414,0L16,18.828l2.586,2.586  c0.391,0.391,1.024,0.391,1.414,0L21.414,20c0.391-0.391,0.391-1.024,0-1.414L18.828,16l2.586-2.586  c0.391-0.391,0.391-1.024,0-1.414L20,10.586C19.61,10.195,18.976,10.195,18.586,10.586z M20.707,19.293l-1.414,1.414L16,17.414  l-3.293,3.293l-1.414-1.414L14.586,16l-3.293-3.293l1.414-1.414L16,14.586l3.293-3.293l1.414,1.414L17.414,16L20.707,19.293z" style="fill: #111918;"/>
<metadata><work rdf:about=""><format>image/svg+xml</format><type rdf:resource="http://purl.org/dc/dcmitype/StillImage"/><license rdf:resource="http://creativecommons.org/licenses/by/4.0/"/><attributionname>Shannon E Thomas</attributionname><attributionurl>http://www.toicon.com/icons/feather_stop</attributionurl></work></metadata></svg>
