<?xml version="1.0" encoding="UTF-8"?>
<!-- Generator: Adobe Illustrator 19.1.0, SVG Export Plug-In . SVG Version: 6.00 Build 0)  -->
<svg xmlns="http://www.w3.org/2000/svg" xmlns:xlink="http://www.w3.org/1999/xlink" xmlns:dc="http://purl.org/dc/elements/1.1/" xmlns:cc="http://creativecommons.org/ns#" xmlns:rdf="http://www.w3.org/1999/02/22-rdf-syntax-ns#" version="1.1" id="DESIGNS" x="0px" y="0px" width="32px" height="32px" viewBox="0 0 32 32" style="enable-background:new 0 0 32 32;" xml:space="preserve">
<desc property="dc:description">An icon for "rain" from the Feather series on to [icon]. Downloaded from http://www.toicon.com/icons/feather_rain by 12.10.115.129 on 2018-10-01. Licensed CC-BY, see http://toicon.com/license/ for details.</desc>
<path class="feather_een" d="M24,10c0-4.418-3.582-8-8-8c-3.741,0-6.873,2.572-7.748,6.041C4.738,8.415,2,11.387,2,15  c0,3.684,2.848,6.697,6.461,6.973C8.184,22.577,8,23.258,8,24c0,1.657,1.343,3,3,3s3-1.343,3-3c0-0.74-0.172-1.408-0.429-2  l10.533-0.005C27.369,21.939,30,19.279,30,16C30,12.686,27.314,10,24,10z M11,26c-1.103,0-2-0.897-2-2  c0-1.706,1.263-3.073,2.013-3.735C11.758,20.901,13,22.229,13,24C13,25.103,12.103,26,11,26z M23.777,21H13.019  c-0.448-0.657-0.966-1.165-1.366-1.505c-0.373-0.317-0.924-0.312-1.291,0.012C9.972,19.85,9.465,20.358,9.02,21H9  c-2.484,0-4.797-1.491-5.621-3.834c-1.391-3.954,1.227-7.731,4.979-8.13l0.693-0.074l0.118-0.467  c0.708-2.806,2.986-5.038,5.853-5.428C19.315,2.482,23,5.819,23,10v1h1c2.922,0,5.266,2.519,4.976,5.499  C28.722,19.097,26.387,21,23.777,21z M19.365,22.502c-0.786,0.69-2.054,2.052-2.317,3.838c-0.257,1.746,0.921,3.493,2.678,3.648  C21.507,30.145,23,28.747,23,27c0-2.177-1.456-3.748-2.339-4.5C20.286,22.181,19.735,22.177,19.365,22.502z M20,29  c-1.103,0-2-0.897-2-2c0-1.706,1.263-3.073,2.013-3.735C20.758,23.901,22,25.229,22,27C22,28.103,21.103,29,20,29z" style="fill: blue;"/>
<metadata><work rdf:about=""><format>image/svg+xml</format><type rdf:resource="http://purl.org/dc/dcmitype/StillImage"/><license rdf:resource="http://creativecommons.org/licenses/by/4.0/"/><attributionname>Shannon E Thomas</attributionname><attributionurl>http://www.toicon.com/icons/feather_rain</attributionurl></work></metadata></svg>
