<?xml version="1.0" encoding="UTF-8"?>
<!-- Generator: Adobe Illustrator 19.1.0, SVG Export Plug-In . SVG Version: 6.00 Build 0)  -->
<svg xmlns="http://www.w3.org/2000/svg" xmlns:xlink="http://www.w3.org/1999/xlink" xmlns:dc="http://purl.org/dc/elements/1.1/" xmlns:cc="http://creativecommons.org/ns#" xmlns:rdf="http://www.w3.org/1999/02/22-rdf-syntax-ns#" version="1.1" id="DESIGNS" x="0px" y="0px" width="32px" height="32px" viewBox="0 0 32 32" style="enable-background:new 0 0 32 32;" xml:space="preserve">
<desc property="dc:description">An icon for "love" from the Feather series on to [icon]. Downloaded from http://www.toicon.com/icons/feather_love by 12.10.115.129 on 2018-10-01. Licensed CC-BY, see http://toicon.com/license/ for details.</desc>
<path class="feather_een" d="M22,4c-2.393,0-4.534,1.056-6,2.721C14.534,5.056,12.393,4,10,4c-4.418,0-8,3.582-8,8  c0,6.11,6.452,11.298,10.596,14c1.285,0.838,2.349,1.437,2.929,1.75c0.299,0.161,0.652,0.161,0.951,0  c0.579-0.313,1.643-0.912,2.928-1.75C23.547,23.299,30,18.11,30,12C30,7.582,26.418,4,22,4z M16,26.869C13.664,25.601,3,19.406,3,12  c0-3.86,3.14-7,7-7c2.003,0,3.917,0.868,5.25,2.382L16,8.234l0.75-0.852C18.083,5.868,19.997,5,22,5c3.86,0,7,3.14,7,7  C29,19.406,18.336,25.601,16,26.869z M8,8c-1.105,0-2,0.895-2,2s0.895,2,2,2c1.105,0,2-0.895,2-2S9.105,8,8,8z M8,11  c-0.551,0-1-0.449-1-1s0.449-1,1-1s1,0.449,1,1S8.551,11,8,11z" style="fill: #0B1719;"/>
<metadata><work rdf:about=""><format>image/svg+xml</format><type rdf:resource="http://purl.org/dc/dcmitype/StillImage"/><license rdf:resource="http://creativecommons.org/licenses/by/4.0/"/><attributionname>Shannon E Thomas</attributionname><attributionurl>http://www.toicon.com/icons/feather_love</attributionurl></work></metadata></svg>
