<?xml version="1.0" encoding="UTF-8"?>
<!-- Generator: Adobe Illustrator 19.1.0, SVG Export Plug-In . SVG Version: 6.00 Build 0)  -->
<svg xmlns="http://www.w3.org/2000/svg" xmlns:xlink="http://www.w3.org/1999/xlink" xmlns:dc="http://purl.org/dc/elements/1.1/" xmlns:cc="http://creativecommons.org/ns#" xmlns:rdf="http://www.w3.org/1999/02/22-rdf-syntax-ns#" version="1.1" id="DESIGNS" x="0px" y="0px" width="32px" height="32px" viewBox="0 0 32 32" style="enable-background:new 0 0 32 32;" xml:space="preserve">
<desc property="dc:description">An icon for "die" from the Feather series on to [icon]. Downloaded from http://www.toicon.com/icons/feather_die by 12.10.115.129 on 2018-10-01. Licensed CC-BY, see http://toicon.com/license/ for details.</desc>
<path class="feather_een" d="M15,25.5v2c0,0.276-0.224,0.5-0.5,0.5S14,27.776,14,27.5v-2c0-0.276,0.224-0.5,0.5-0.5  S15,25.224,15,25.5z M12.5,25c-0.276,0-0.5,0.224-0.5,0.5v2c0,0.276,0.224,0.5,0.5,0.5s0.5-0.224,0.5-0.5v-2  C13,25.224,12.776,25,12.5,25z M11,21c-2.209,0-3-1.791-3-4s0.791-4,3-4s3,1.791,3,4S13.209,21,11,21z M13,17c0-3-1.505-3-2-3  s-2,0-2,3s1.505,3,2,3S13,20,13,17z M17.5,25c-0.276,0-0.5,0.224-0.5,0.5v2c0,0.276,0.224,0.5,0.5,0.5s0.5-0.224,0.5-0.5v-2  C18,25.224,17.776,25,17.5,25z M29,14c0,5.014-2.843,9.357-7,11.526V28c0,1.657-1.343,3-3,3h-6c-1.657,0-3-1.343-3-3v-2.474  c-4.535-2.366-7.505-7.319-6.929-12.907C3.69,6.625,8.527,1.745,14.516,1.082C22.36,0.214,29,6.331,29,14z M28,14  c0-7.239-6.443-13.001-13.896-11.854c-4.826,0.743-8.797,4.466-9.824,9.24c-1.175,5.459,1.431,10.775,6.182,13.253L11,24.919V28  c0,1.105,0.895,2,2,2h6c1.105,0,2-0.895,2-2v-3.081l0.537-0.28C25.524,22.56,28,18.483,28,14z M24,17c0,2.209-0.791,4-3,4  s-3-1.791-3-4s0.791-4,3-4S24,14.791,24,17z M23,17c0-3-1.505-3-2-3s-2,0-2,3s1.505,3,2,3S23,20,23,17z M19.5,25  c-0.276,0-0.5,0.224-0.5,0.5v2c0,0.276,0.224,0.5,0.5,0.5s0.5-0.224,0.5-0.5v-2C20,25.224,19.776,25,19.5,25z" style="fill: #0B1719;"/>
<metadata><work rdf:about=""><format>image/svg+xml</format><type rdf:resource="http://purl.org/dc/dcmitype/StillImage"/><license rdf:resource="http://creativecommons.org/licenses/by/4.0/"/><attributionname>Shannon E Thomas</attributionname><attributionurl>http://www.toicon.com/icons/feather_die</attributionurl></work></metadata></svg>
