<?xml version="1.0" encoding="UTF-8"?>
<!-- Generator: Adobe Illustrator 19.1.0, SVG Export Plug-In . SVG Version: 6.00 Build 0)  -->
<svg xmlns="http://www.w3.org/2000/svg" xmlns:xlink="http://www.w3.org/1999/xlink" xmlns:dc="http://purl.org/dc/elements/1.1/" xmlns:cc="http://creativecommons.org/ns#" xmlns:rdf="http://www.w3.org/1999/02/22-rdf-syntax-ns#" version="1.1" id="DESIGNS" x="0px" y="0px" width="32px" height="32px" viewBox="0 0 32 32" style="enable-background:new 0 0 32 32;" xml:space="preserve">
<desc property="dc:description">An icon for "see" from the Feather series on to [icon]. Downloaded from http://www.toicon.com/icons/feather_see by 12.10.115.129 on 2018-10-01. Licensed CC-BY, see http://toicon.com/license/ for details.</desc>
<path class="feather_een" d="M21.461,6.858L21.461,6.858c0,0-0.001,0-0.001,0C19.858,6.326,18.048,6,16,6  c-2.048,0-3.858,0.326-5.46,0.857c0,0,0,0,0,0l0,0C4.484,8.867,1.471,13.89,0.432,16.02c-0.3,0.616-0.276,1.334,0.081,1.918  C1.923,20.244,6.403,26,16,26s14.077-5.756,15.487-8.062c0.357-0.585,0.382-1.302,0.081-1.918  C30.529,13.89,27.516,8.867,21.461,6.858z M11.012,7.758C12.482,7.284,14.14,7,16,7c1.811,0,3.547,0.281,4.984,0.754  C22.903,9.285,24,11.552,24,14c0,4.411-3.589,8-8,8s-8-3.589-8-8C8,11.554,9.096,9.289,11.012,7.758z M16,25  c-9.181,0-13.359-5.452-14.64-7.58c-0.172-0.286-0.187-0.635-0.04-0.935c0.832-1.701,3.096-5.525,7.415-7.763  c-1.117,1.529-1.775,3.413-1.733,5.462c0.097,4.734,4.025,8.69,8.759,8.812C20.841,23.128,25,19.05,25,14  c0-1.998-0.665-3.832-1.769-5.324c4.386,2.227,6.636,6.086,7.459,7.808c0.143,0.298,0.127,0.642-0.044,0.926  C29.37,19.534,25.194,25,16,25z M11.159,12.809C11.064,13.192,11,13.587,11,14c0,2.761,2.239,5,5,5s5-2.239,5-5s-2.239-5-5-5  c-0.916,0-1.763,0.259-2.497,0.693C13.136,9.272,12.602,9,12,9c-1.105,0-2,0.895-2,2C10,11.803,10.476,12.491,11.159,12.809z M14,11  c0-0.144-0.017-0.284-0.046-0.419C14.555,10.22,15.25,10,16,10c2.206,0,4,1.794,4,4s-1.794,4-4,4s-4-1.794-4-4  c0-0.352,0.051-0.691,0.14-1.014C13.178,12.913,14,12.056,14,11z M12,10c0.552,0,1,0.448,1,1c0,0.552-0.448,1-1,1s-1-0.448-1-1  C11,10.448,11.448,10,12,10z" style="fill: white;"/>
<metadata><work rdf:about=""><format>image/svg+xml</format><type rdf:resource="http://purl.org/dc/dcmitype/StillImage"/><license rdf:resource="http://creativecommons.org/licenses/by/4.0/"/><attributionname>Shannon E Thomas</attributionname><attributionurl>http://www.toicon.com/icons/feather_see</attributionurl></work></metadata></svg>
