<?xml version="1.0" encoding="UTF-8"?>
<!-- Generator: Adobe Illustrator 19.1.0, SVG Export Plug-In . SVG Version: 6.00 Build 0)  -->
<svg xmlns="http://www.w3.org/2000/svg" xmlns:xlink="http://www.w3.org/1999/xlink" xmlns:dc="http://purl.org/dc/elements/1.1/" xmlns:cc="http://creativecommons.org/ns#" xmlns:rdf="http://www.w3.org/1999/02/22-rdf-syntax-ns#" version="1.1" id="DESIGNS" x="0px" y="0px" width="32px" height="32px" viewBox="0 0 32 32" style="enable-background:new 0 0 32 32;" xml:space="preserve">
<desc property="dc:description">An icon for "sound" from the Feather series on to [icon]. Downloaded from http://www.toicon.com/icons/feather_sound by 12.10.115.129 on 2018-10-01. Licensed CC-BY, see http://toicon.com/license/ for details.</desc>
<path class="feather_een" d="M20.998,4.765c-0.172,0-0.348,0.045-0.513,0.144l-7.773,4.664c-0.466,0.28-1,0.428-1.543,0.428H7  c-1.657,0-3,1.343-3,3v1c-1.105,0-2,0.895-2,2s0.895,2,2,2v1c0,1.657,1.343,3,3,3h4.054c0.616,0,1.216,0.189,1.72,0.542l7.652,5.356  c0.18,0.126,0.377,0.182,0.57,0.182c0.519,0,1.003-0.412,1.003-1.002V5.766C22,5.181,21.52,4.765,20.998,4.765z M3,16  c0-0.551,0.449-1,1-1v2C3.449,17,3,16.551,3,16z M21,27.079l-7.652-5.356C12.672,21.25,11.879,21,11.054,21H7c-1.103,0-2-0.897-2-2  v-6c0-1.103,0.897-2,2-2h4.169c0.725,0,1.436-0.197,2.058-0.57L21,5.767V27.079z M27.304,21.803c-0.128,0-0.256-0.049-0.354-0.146  c-0.195-0.195-0.195-0.512,0-0.707c2.729-2.729,2.729-7.17,0-9.899c-0.195-0.195-0.195-0.512,0-0.707s0.512-0.195,0.707,0  c3.119,3.119,3.119,8.194,0,11.313C27.56,21.754,27.432,21.803,27.304,21.803z M25.889,20.389c-0.128,0-0.256-0.049-0.354-0.146  c-0.195-0.195-0.195-0.512,0-0.707C26.479,18.591,27,17.335,27,16s-0.521-2.591-1.465-3.536c-0.195-0.195-0.195-0.512,0-0.707  s0.512-0.195,0.707,0C27.376,12.891,28,14.397,28,16s-0.624,3.109-1.758,4.243C26.145,20.34,26.017,20.389,25.889,20.389z" style="fill: #111918;"/>
<metadata><work rdf:about=""><format>image/svg+xml</format><type rdf:resource="http://purl.org/dc/dcmitype/StillImage"/><license rdf:resource="http://creativecommons.org/licenses/by/4.0/"/><attributionname>Shannon E Thomas</attributionname><attributionurl>http://www.toicon.com/icons/feather_sound</attributionurl></work></metadata></svg>
