<?xml version="1.0" encoding="UTF-8"?>
<!-- Generator: Adobe Illustrator 19.1.0, SVG Export Plug-In . SVG Version: 6.00 Build 0)  -->
<svg xmlns="http://www.w3.org/2000/svg" xmlns:xlink="http://www.w3.org/1999/xlink" xmlns:dc="http://purl.org/dc/elements/1.1/" xmlns:cc="http://creativecommons.org/ns#" xmlns:rdf="http://www.w3.org/1999/02/22-rdf-syntax-ns#" version="1.1" id="DESIGNS" x="0px" y="0px" width="32px" height="32px" viewBox="0 0 32 32" style="enable-background:new 0 0 32 32;" xml:space="preserve">
<desc property="dc:description">An icon for "mute" from the Feather series on to [icon]. Downloaded from http://www.toicon.com/icons/feather_mute by 12.10.115.129 on 2018-10-01. Licensed CC-BY, see http://toicon.com/license/ for details.</desc>
<path class="feather_een" d="M20.998,4.765c-0.172,0-0.348,0.045-0.513,0.144l-7.773,4.664c-0.466,0.28-1,0.428-1.543,0.428H7  c-1.657,0-3,1.343-3,3v1c-1.105,0-2,0.895-2,2s0.895,2,2,2v1c0,1.657,1.343,3,3,3h4.054c0.616,0,1.216,0.189,1.72,0.542l7.652,5.356  c0.18,0.126,0.377,0.182,0.57,0.182c0.519,0,1.003-0.412,1.003-1.002V5.766C22,5.181,21.52,4.765,20.998,4.765z M3,16  c0-0.551,0.449-1,1-1v2C3.449,17,3,16.551,3,16z M21,27.079l-7.652-5.356C12.672,21.25,11.879,21,11.054,21H7c-1.103,0-2-0.897-2-2  v-6c0-1.103,0.897-2,2-2h4.169c0.725,0,1.436-0.197,2.058-0.57L21,5.767V27.079z M29.854,18.146c0.195,0.195,0.195,0.512,0,0.707  C29.756,18.951,29.628,19,29.5,19s-0.256-0.049-0.354-0.146L27,16.707l-2.146,2.146C24.756,18.951,24.628,19,24.5,19  s-0.256-0.049-0.354-0.146c-0.195-0.195-0.195-0.512,0-0.707L26.293,16l-2.146-2.146c-0.195-0.195-0.195-0.512,0-0.707  s0.512-0.195,0.707,0L27,15.293l2.146-2.146c0.195-0.195,0.512-0.195,0.707,0s0.195,0.512,0,0.707L27.707,16L29.854,18.146z" style="fill: #0B1719;"/>
<metadata><work rdf:about=""><format>image/svg+xml</format><type rdf:resource="http://purl.org/dc/dcmitype/StillImage"/><license rdf:resource="http://creativecommons.org/licenses/by/4.0/"/><attributionname>Shannon E Thomas</attributionname><attributionurl>http://www.toicon.com/icons/feather_mute</attributionurl></work></metadata></svg>
